HIERARCHY
ROOT Hips
{
	OFFSET 0.000000 0.000000 0.000000
	CHANNELS 6 Xposition Yposition Zposition Zrotation Yrotation Xrotation 
	JOINT LeftUpLeg_virtual
	{
		OFFSET 0.000000 0.000000 0.000000
		CHANNELS 3 Zrotation Yrotation Xrotation
		JOINT LeftUpLeg
		{
			OFFSET 10.205400 -3.823500 0.155100
			CHANNELS 3 Zrotation Yrotation Xrotation
			JOINT LeftLeg
			{
				OFFSET 0.708757 -12.982077 0.567790
				CHANNELS 3 Zrotation Yrotation Xrotation
				JOINT LeftFoot
				{
					OFFSET -0.708756 -10.717838 -2.184338
					CHANNELS 3 Zrotation Yrotation Xrotation
					JOINT LeftToeBase
					{
						OFFSET 0.108149 -7.191104 7.560241
						CHANNELS 3 Zrotation Yrotation Xrotation
						End Site
						{
							OFFSET 0.000000 0.000000 0.000000
						}
					}
				}
			}
		}
	}
	JOINT RightUpLeg_virtual
	{
		OFFSET 0.000000 0.000000 0.000000
		CHANNELS 3 Zrotation Yrotation Xrotation
		JOINT RightUpLeg
		{
			OFFSET -10.205400 -3.823500 0.005500
			CHANNELS 3 Zrotation Yrotation Xrotation
			JOINT RightLeg
			{
				OFFSET -0.708756 -12.982134 0.610632
				CHANNELS 3 Zrotation Yrotation Xrotation
				JOINT RightFoot
				{
					OFFSET 0.708754 -10.717769 -1.945823
					CHANNELS 3 Zrotation Yrotation Xrotation
					JOINT RightToeBase
					{
						OFFSET -0.108140 -7.191069 7.372968
						CHANNELS 3 Zrotation Yrotation Xrotation
						End Site
						{
							OFFSET 0.000000 0.000000 0.000000
						}
					}
				}
			}
		}
	}
	JOINT Spine_virtual
	{
		OFFSET 0.000000 0.000000 0.000000
		CHANNELS 3 Zrotation Yrotation Xrotation
		JOINT Spine
		{
			OFFSET 0.000000 6.876099 0.125700
			CHANNELS 3 Zrotation Yrotation Xrotation
			JOINT Spine1
			{
				OFFSET 0.000000 8.022060 0.146608
				CHANNELS 3 Zrotation Yrotation Xrotation
				JOINT Spine2
				{
					OFFSET 0.000000 9.168068 0.167552
					CHANNELS 3 Zrotation Yrotation Xrotation
					JOINT Neck_virtual
					{
						OFFSET 0.000000 0.000000 0.000000
						CHANNELS 3 Zrotation Yrotation Xrotation
						JOINT Neck
						{
							OFFSET 0.000000 10.314075 0.188496
							CHANNELS 3 Zrotation Yrotation Xrotation
							JOINT Head
							{
								OFFSET 0.000000 7.643700 -2.377400
								CHANNELS 3 Zrotation Yrotation Xrotation
								End Site
								{
									OFFSET 0.000000 0.000000 0.000000
								}
							}
						}
					}
					JOINT LeftShoulder_virtual
					{
						OFFSET 0.000000 0.000000 0.000000
						CHANNELS 3 Zrotation Yrotation Xrotation
						JOINT LeftShoulder
						{
							OFFSET 4.392200 8.824978 0.174984
							CHANNELS 3 Zrotation Yrotation Xrotation
							JOINT LeftArm
							{
								OFFSET 8.771219 -2.981674 -0.026999
								CHANNELS 3 Zrotation Yrotation Xrotation
								JOINT LeftForeArm
								{
									OFFSET 8.512804 0.000000 -0.000000
									CHANNELS 3 Zrotation Yrotation Xrotation
									JOINT LeftHand
									{
										OFFSET 18.484802 0.000000 -0.000000
										CHANNELS 3 Zrotation Yrotation Xrotation
										End Site
										{
											OFFSET 0.000000 0.000000 0.000000
										}
									}
								}
							}
						}
					}
					JOINT RightShoulder_virtual
					{
						OFFSET 0.000000 0.000000 0.000000
						CHANNELS 3 Zrotation Yrotation Xrotation
						JOINT RightShoulder
						{
							OFFSET -4.392200 8.824993 0.141379
							CHANNELS 3 Zrotation Yrotation Xrotation
							JOINT RightArm
							{
								OFFSET -8.771282 -2.981682 -0.094208
								CHANNELS 3 Zrotation Yrotation Xrotation
								JOINT RightForeArm
								{
									OFFSET -8.494598 0.000000 0.000000
									CHANNELS 3 Zrotation Yrotation Xrotation
									JOINT RightHand
									{
										OFFSET -18.483803 0.000000 0.000001
										CHANNELS 3 Zrotation Yrotation Xrotation
										End Site
										{
											OFFSET 0.000000 0.000000 0.000000
										}
									}
								}
							}
						}
					}
				}
			}
		}
	}
}
MOTION
Frames: 7
Frame Time: 0.033333
11.823549 35.573112 68.367065 -179.679136 57.878948 -179.736059 -3.893564 -0.816818 11.675986 -12.717840 -8.793466 -14.829580 15.386856 4.286417 26.468904 -0.566337 -0.317214 0.097251 0.000000 0.000000 0.000000 1.886411 1.322254 9.543959 -1.521425 -0.527616 -39.222177 -9.001348 1.347409 19.475234 9.686567 10.886182 21.777572 0.000000 0.000000 0.000000 -0.471168 2.153999 2.440389 3.502729 1.103163 -7.631934 -0.852052 -3.690958 7.000896 0.001201 -0.025448 -0.014919 -1.331631 -1.778254 10.690423 -7.517346 7.977297 14.689030 0.000000 0.000000 0.000000 -0.144055 -1.357650 7.271266 0.235968 -5.136358 1.089893 -33.353753 9.738987 47.844280 -148.691237 -84.978666 170.620803 0.000000 0.000000 0.000000 -3.349595 -0.207083 7.305446 28.033390 3.744355 -0.909916 45.100589 -37.476012 12.968205 -0.448339 33.475392 -1.670616 0.000000 0.000000 0.000000 
12.754394 35.454285 67.930412 -179.751905 56.369937 -179.790591 -3.933421 -0.786750 11.910427 -12.353317 -8.933011 -13.374817 15.228667 3.795871 27.200981 -0.790299 -0.653976 -1.643408 0.000000 0.000000 0.000000 1.969493 1.404497 9.268960 -0.764571 1.560592 -41.652567 -9.425672 0.935758 14.634128 10.290118 9.869071 23.466915 0.000000 0.000000 0.000000 -0.038897 2.136451 2.753607 3.666084 1.132012 -7.127670 -1.014808 -3.752712 6.801757 -0.014013 -0.034994 -0.031624 -1.511157 -1.845576 10.666846 -7.477470 7.612307 14.236751 0.000000 0.000000 0.000000 -0.291508 -1.276589 7.190193 -0.064895 -4.933432 1.279808 -33.084248 9.886385 47.909518 -147.833939 -85.133165 169.795538 0.000000 0.000000 0.000000 -3.528591 -0.091642 7.306201 27.748391 3.802628 -1.092190 45.566671 -38.457568 13.351902 -0.490339 33.045575 -1.733589 0.000000 0.000000 0.000000 
13.763903 35.274509 67.453323 -179.757315 54.798167 -179.740157 -3.875575 -1.021461 12.161718 -12.064211 -8.474195 -11.941208 15.086464 3.342534 28.108129 -0.955546 -1.221474 -3.479111 0.000000 0.000000 0.000000 2.072494 1.617547 8.937087 -0.372929 3.328544 -43.436025 -9.742073 0.514516 11.577551 10.407321 9.088397 23.985382 0.000000 0.000000 0.000000 0.414112 2.029923 2.913243 3.775202 1.256528 -6.681198 -1.149633 -3.686480 6.715301 -0.018660 -0.004046 -0.010645 -1.600670 -1.811243 10.645273 -7.502165 7.242447 13.689475 0.000000 0.000000 0.000000 -0.392266 -1.251030 7.167336 -0.415550 -4.771717 1.542285 -32.712511 10.083056 47.891176 -146.694008 -85.253970 168.764849 0.000000 0.000000 0.000000 -3.622784 -0.059268 7.288882 27.722076 3.910418 -1.440192 45.751701 -38.806505 13.916157 -0.519420 32.610738 -1.770983 0.000000 0.000000 0.000000 
14.831823 35.070469 66.924446 -179.811328 52.650264 -179.754569 -3.787650 -1.238533 12.300168 -11.456439 -8.661353 -10.741306 14.682574 2.609679 29.681748 -1.357236 -1.613746 -4.714003 0.000000 0.000000 0.000000 2.231899 1.444938 8.712052 -0.431477 4.671983 -44.318362 -9.979838 0.211175 10.311458 10.026591 8.536529 23.749568 0.000000 0.000000 0.000000 0.831230 1.876200 2.798133 3.787441 1.409573 -6.302973 -1.242508 -3.637501 6.704243 -0.012233 0.047999 0.004996 -1.681581 -1.837021 10.677646 -7.546643 6.822618 13.154656 0.000000 0.000000 0.000000 -0.434686 -1.280249 7.171175 -0.744293 -4.803745 1.712929 -32.381551 10.381625 47.749866 -145.763545 -85.366587 168.000442 0.000000 0.000000 0.000000 -3.722002 -0.108587 7.272724 28.040797 3.979337 -1.584699 45.598865 -38.532014 14.581448 -0.420660 32.330280 -1.649293 0.000000 0.000000 0.000000 
15.963201 34.905563 66.324387 -179.801711 50.247557 -179.519911 -3.226121 -1.377259 11.987465 -11.014041 -9.326081 -10.096797 14.489799 1.562648 31.703013 -2.727661 -2.450186 -3.726033 0.000000 0.000000 0.000000 2.738131 1.321652 8.309146 -0.805344 5.048534 -43.777674 -9.554531 0.226559 9.085869 9.800974 8.616697 25.947144 0.000000 0.000000 0.000000 1.215035 1.631642 2.322767 3.749141 1.548105 -6.066814 -1.275324 -3.620064 6.706907 -0.003247 0.050364 0.045510 -1.778642 -1.649365 10.842628 -7.514196 6.378933 12.652072 0.000000 0.000000 0.000000 -0.518604 -1.231298 7.334972 -1.079978 -4.844742 1.888778 -32.173883 10.646141 47.372730 -142.749014 -85.353582 165.189682 0.000000 0.000000 0.000000 -3.861104 -0.101145 7.398039 28.636325 4.118845 -1.670573 45.059004 -37.710571 15.396466 -0.358721 32.230519 -1.522456 0.000000 0.000000 0.000000 
17.144907 34.809635 65.704987 179.833827 47.926430 -179.794799 -2.905668 -1.635540 11.475005 -10.490238 -9.315294 -9.445401 14.203376 0.612241 33.322697 -4.540046 -3.371787 -1.172006 0.000000 0.000000 0.000000 3.496327 1.316051 7.832044 -1.396194 5.174391 -42.018832 -9.079808 2.681951 9.569264 10.350255 9.508858 26.868769 0.000000 0.000000 0.000000 1.390499 1.410254 1.897084 3.535718 1.688559 -5.793673 -1.339207 -3.606544 6.815363 0.055809 0.014197 0.050955 -1.847170 -1.690668 11.033377 -7.383516 5.903668 12.173256 0.000000 0.000000 0.000000 -0.517454 -1.192179 7.481018 -1.395151 -4.921118 2.094326 -31.858492 10.973742 47.106688 -141.638302 -85.393252 164.281800 0.000000 0.000000 0.000000 -3.937767 -0.067062 7.561879 29.406010 4.276568 -1.831723 44.229033 -36.240830 15.762576 -0.157288 32.240883 -1.292220 0.000000 0.000000 0.000000 
18.333397 34.809418 65.091003 179.583200 45.647377 179.804143 -2.444306 -1.980452 10.871070 -9.778081 -9.033899 -9.128602 13.769579 -0.502910 34.960931 -6.684120 -4.139455 3.397059 0.000000 0.000000 0.000000 3.964043 1.345764 7.802570 -1.528918 5.413350 -39.988459 -8.602819 3.963336 11.276847 10.521339 10.245622 26.210602 0.000000 0.000000 0.000000 1.605517 1.296286 1.566496 3.288210 1.851010 -5.410733 -1.396657 -3.608580 7.010139 0.026130 -0.056905 0.011711 -1.830719 -1.747389 11.259429 -7.162462 5.469655 11.749324 0.000000 0.000000 0.000000 -0.433548 -1.140004 7.636393 -1.627986 -5.105060 2.259831 -31.500334 11.089828 46.801546 -140.028522 -85.457872 162.868101 0.000000 0.000000 0.000000 -3.898269 -0.036190 7.771947 30.323000 4.548523 -1.903743 43.181938 -34.143706 15.889885 -0.037810 32.363998 -1.127285 0.000000 0.000000 0.000000 
